DataType=double
version=3
OpenSimVersion=4.5-2024-01-10-34fd6af
endheader
time	ground_force_1_vx	ground_force_1_vy	ground_force_1_vz	ground_force_1_px	ground_force_1_py	ground_force_1_pz	ground_moment_1_mx	ground_moment_1_my	ground_moment_1_mz	ground_force_2_vx	ground_force_2_vy	ground_force_2_vz	ground_force_2_px	ground_force_2_py	ground_force_2_pz	ground_moment_2_mx	ground_moment_2_my	ground_moment_2_mz
2.76	9.000738517	18.45997451	0.851844086	0.804529226	0	0.24132614	-3.360394238	1.793513819	3.027780016	100.8491021	683.8343003	-32.59565633	0.806664643	0	0.743203367	123.5061767	-25.76038885	-152.4418652
2.765	15.59980428	35.13938207	-0.25091959	0.804529226	0	0.24132614	-6.282354316	3.234241317	5.745183387	105.3387862	675.8916546	-31.87952145	0.806664643	0	0.743203367	122.1204482	-26.77875182	-154.2887662
2.77	22.7892144	57.49485215	-2.385289666	0.804529226	0	0.24132614	-10.1881599	4.913921045	9.350746195	109.9188597	666.231702	-31.06307006	0.806664643	0	0.743203367	120.4051008	-27.72553139	-155.5522241
2.775	28.82099427	85.18955777	-5.702233661	0.804529226	0	0.24132614	-15.0153695	6.516784749	13.64470664	114.3436399	654.5215377	-29.96508475	0.806664643	0	0.743203367	118.305575	-28.58389598	-156.0667186
2.78	31.59238287	117.2656026	-9.874624235	0.804529226	0	0.24132614	-20.62066813	7.690554363	18.29404772	118.427939	640.3231156	-28.50041664	0.806664643	0	0.743203367	115.7582744	-29.32525014	-155.7798411
2.785	29.83122509	152.6140556	-14.18795111	0.804529226	0	0.24132614	-26.85398078	8.199347463	23.25366381	122.1469303	623.2219537	-26.78221056	0.806664643	0	0.743203367	112.6957081	-29.87925039	-154.6553901
2.79	23.71428692	190.91464	-18.00124401	0.804529226	0	0.24132614	-33.64858593	7.952467384	28.71147406	125.3600671	602.8505988	-24.9678635	0.806664643	0	0.743203367	109.0573007	-30.2040478	-152.5757159
2.795	14.39531795	232.6869047	-21.24034929	0.804529226	0	0.24132614	-41.04015452	7.06994275	34.76526413	127.6649658	579.0193243	-23.02967575	0.806664643	0	0.743203367	104.7964178	-30.23582772	-149.3644587
2.8	3.326185771	278.5078293	-24.4127905	0.804529226	0	0.24132614	-49.03717513	5.811396473	41.39456904	128.6581691	551.7268517	-20.82484439	0.806664643	0	0.743203367	99.89700962	-29.91948159	-144.9081672
2.805	-8.162163775	327.7774249	-27.74245336	0.804529226	0	0.24132614	-57.48694297	4.342094197	48.56723094	128.1637019	521.0796793	-18.2608384	0.806664643	0	0.743203367	94.36785641	-29.2270647	-139.2270347
2.81	-19.22491233	378.5733921	-30.28754184	0.804529226	0	0.24132614	-66.05623406	2.674148049	56.01846067	126.0968948	487.1877336	-15.44429345	0.806664643	0	0.743203367	88.25647559	-28.09417943	-132.4022996
2.815	-29.51863298	428.5458393	-30.30691403	0.804529226	0	0.24132614	-74.3190181	0.69388853	63.19281359	122.2683122	450.4255096	-12.56836593	0.806664643	0	0.743203367	81.64662228	-26.49077149	-124.4709861
2.82	-38.81704538	475.6603707	-26.62681537	0.804529226	0	0.24132614	-81.92587065	-1.679921943	69.62339172	116.4628803	411.6594291	-9.725262071	0.806664643	0	0.743203367	74.67027682	-24.42850646	-115.4985636
2.825	-46.86221252	518.6670764	-19.70322327	0.804529226	0	0.24132614	-88.66249828	-4.333722503	75.20193145	108.6968901	371.9769521	-6.840637548	0.806664643	0	0.743203367	67.5066122	-21.95260519	-105.7218966
2.83	-53.70349206	557.134829	-10.94570636	0.804529226	0	0.24132614	-94.4741403	-7.055551895	79.83412756	99.33325425	332.34445	-3.781580721	0.806664643	0	0.743203367	60.34046815	-19.19232523	-95.52401008
2.835	-59.64132497	591.2475021	-1.415115125	0.804529226	0	0.24132614	-99.41894829	-9.674458066	83.37057594	88.90924796	293.609563	-0.646205681	0.806664643	0	0.743203367	53.34973861	-16.29489117	-85.27723297
2.84	-64.87308699	621.4858853	8.456034435	0.804529226	0	0.24132614	-103.5951252	-12.06484501	85.9201748	77.9454839	256.6954686	2.254199721	0.806664643	0	0.743203367	46.67644826	-13.39914764	-75.23182977
2.845	-69.5721105	648.3362263	18.18812601	0.804529226	0	0.24132614	-107.1389475	-14.11768813	87.86020168	66.97954838	222.274135	4.619775654	0.806664643	0	0.743203367	40.42297854	-10.68242208	-65.54722028
2.85	-73.98275313	672.356799	26.72157373	0.804529226	0	0.24132614	-110.2049386	-15.6952928	89.3930421	56.60600831	190.574684	6.337144822	0.806664643	0	0.743203367	34.65515525	-8.281407183	-56.40867874
2.855	-77.98376465	694.1456046	33.00896373	0.804529226	0	0.24132614	-112.9434748	-16.66977692	90.47362482	47.28876669	161.6973484	7.404683248	0.806664643	0	0.743203367	29.40713297	-6.279772436	-48.03230272
2.86	-81.08491315	714.2225218	36.95587931	0.804529226	0	0.24132614	-115.4477162	-17.10484649	91.05799337	39.16911495	135.8265345	7.790623972	0.806664643	0	0.743203367	24.68763981	-4.722319478	-40.51770829
2.865	-83.22696089	732.7179762	39.56647366	0.804529226	0	0.24132614	-117.7239096	-17.20340861	91.24463891	32.10391957	113.0157561	7.453891654	0.806664643	0	0.743203367	20.49265248	-3.538403243	-33.80047372
2.87	-84.95690743	749.3366617	42.0383708	0.804529226	0	0.24132614	-119.7086329	-17.14218675	91.19922857	25.81449642	93.08678925	6.488381897	0.806664643	0	0.743203367	16.81125494	-2.657302564	-27.87889187
2.875	-86.48972651	763.6364976	44.84381293	0.804529226	0	0.24132614	-121.3300057	-17.00334555	91.00618938	20.12591389	75.83491402	5.181422572	0.806664643	0	0.743203367	13.62127451	-2.009842772	-22.84677732
2.88	-87.35587376	775.3193355	47.6959346	0.804529226	0	0.24132614	-122.5597208	-16.76333484	90.46035071	15.06980534	61.07179512	3.848162821	0.806664643	0	0.743203367	10.8920388	-1.506754665	-18.62865399
2.885	-87.24073141	784.3349064	50.18125379	0.804529226	0	0.24132614	-123.4138915	-16.3773404	89.28036439	10.62586532	48.54268017	2.68553039	0.806664643	0	0.743203367	8.57140928	-1.099317831	-14.96881748
2.89	-86.5616371	791.0006455	52.29182197	0.804529226	0	0.24132614	-123.9296368	-15.90120835	87.52878323	6.589536507	37.93090782	1.698081826	0.806664643	0	0.743203367	6.610205554	-0.739401965	-11.71744296
2.895	-85.81417931	795.9063487	54.36490175	0.804529226	0	0.24132614	-124.1434306	-15.41269251	85.67528866	2.947626031	28.98983701	0.864237544	0.806664643	0	0.743203367	4.966269995	-0.392271471	-8.841663248
2.9	-84.94339334	799.5035823	56.64066351	0.804529226	0	0.24132614	-124.1001734	-14.94274588	83.95700692	0.019734395	21.55179187	0.238925292	0.806664643	0	0.743203367	3.607957421	-0.085445079	-6.316175653
2.905	-83.66717174	801.7857522	58.97569997	0.804529226	0	0.24132614	-123.8596761	-14.48600736	82.08853121	-1.981289784	15.46940052	-0.112842096	0.806664643	0	0.743203367	2.509711006	0.161315384	-4.159518828
2.91	-81.99225307	802.645091	60.99348449	0.804529226	0	0.24132614	-123.4661549	-13.99004581	79.82971177	-3.118842553	10.58780161	-0.221646217	0.806664643	0	0.743203367	1.640215637	0.324762088	-2.431123824
2.915	-80.22022151	802.2464982	62.5064836	0.804529226	0	0.24132614	-122.9283134	-13.45398392	77.5163789	0	0	0	0.806664643	0	0.743203367	0	0	0
2.92	-78.69324289	800.8619393	63.69628787	0.804529226	0	0.24132614	-122.2400658	-12.93136342	75.55090786	0	0	0	0.806664643	0	0.743203367	0	0	0
2.925	-77.46724925	798.4448899	64.74830896	0.804529226	0	0.24132614	-121.3963661	-12.43684696	73.77815712	0	0	0	0.806664643	0	0.743203367	0	0	0
2.93	-76.22919616	794.6410316	65.51193548	0.804529226	0	0.24132614	-120.4020765	-11.96548994	71.82046016	0	0	0	0.806664643	0	0.743203367	0	0	0
2.935	-74.80839542	789.2953037	65.62952862	0.804529226	0	0.24132614	-119.2396946	-11.49821487	69.68524458	0	0	0	0.806664643	0	0.743203367	0	0	0
2.94	-73.55703994	782.5726042	65.05826572	0.804529226	0	0.24132614	-117.8755052	-11.01580023	67.65176865	0	0	0	0.806664643	0	0.743203367	0	0	0
2.945	-72.77411188	774.5779348	64.22099379	0.804529226	0	0.24132614	-116.2885421	-10.57620314	65.79965791	0	0	0	0.806664643	0	0.743203367	0	0	0
2.95	-72.11749454	765.2090409	63.5636	0.804529226	0	0.24132614	-114.4856944	-10.21982505	63.93729198	0	0	0	0.806664643	0	0.743203367	0	0	0
2.955	-71.13142814	754.4725852	63.13642013	0.804529226	0	0.24132614	-112.509298	-9.914910646	61.90555711	0	0	0	0.806664643	0	0.743203367	0	0	0
2.96	-70.00536955	742.84037	62.67396087	0.804529226	0	0.24132614	-110.4212453	-9.63573524	59.7778454	0	0	0	0.806664643	0	0.743203367	0	0	0
2.965	-69.18288571	730.9560922	62.01529027	0.804529226	0	0.24132614	-108.2824787	-9.358935578	57.80037404	0	0	0	0.806664643	0	0.743203367	0	0	0
2.97	-68.57115092	719.2251513	61.33296172	0.804529226	0	0.24132614	-106.1570023	-9.101351497	56.04108873	0	0	0	0.806664643	0	0.743203367	0	0	0
2.975	-67.72138002	707.8135974	60.85430059	0.804529226	0	0.24132614	-104.1116563	-8.906371883	54.28829697	0	0	0	0.806664643	0	0.743203367	0	0	0
2.98	-66.55058379	696.9570935	60.49006341	0.804529226	0	0.24132614	-102.2069215	-8.74989002	52.38220828	0	0	0	0.806664643	0	0.743203367	0	0	0
2.985	-65.36877564	687.0366886	59.8755457	0.804529226	0	0.24132614	-100.4803807	-8.589709152	50.47720321	0	0	0	0.806664643	0	0.743203367	0	0	0
2.99	-64.34244092	678.2248503	58.79925811	0.804529226	0	0.24132614	-98.94705486	-8.395300645	48.74821168	0	0	0	0.806664643	0	0.743203367	0	0	0
2.995	-63.26290266	670.3823286	57.44016522	0.804529226	0	0.24132614	-97.60892399	-8.173841984	47.0588706	0	0	0	0.806664643	0	0.743203367	0	0	0
3	-61.87405552	663.3490163	56.10786553	0.804529226	0	0.24132614	-96.4649507	-7.961851313	45.15286749	0	0	0	0.806664643	0	0.743203367	0	0	0
3.005	-60.22429866	657.1299379	54.83974962	0.804529226	0	0.24132614	-95.51104928	-7.750047851	43.06034842	0	0	0	0.806664643	0	0.743203367	0	0	0
3.01	-58.58947731	651.7474568	53.39953498	0.804529226	0	0.24132614	-94.73264856	-7.498479474	41.00185272	0	0	0	0.806664643	0	0.743203367	0	0	0
3.015	-57.03488541	647.0445684	51.6738446	0.804529226	0	0.24132614	-94.10584665	-7.190926909	38.99041569	0	0	0	0.806664643	0	0.743203367	0	0	0
3.02	-55.2659567	642.8721388	49.88901127	0.804529226	0	0.24132614	-93.61024092	-6.8462961	36.78499186	0	0	0	0.806664643	0	0.743203367	0	0	0
3.025	-53.03831597	639.1962712	48.34492257	0.804529226	0	0.24132614	-93.22926586	-6.492180425	34.28220999	0	0	0	0.806664643	0	0.743203367	0	0	0
3.03	-50.55067417	636.0347279	47.08131741	0.804529226	0	0.24132614	-92.9465615	-6.132666659	31.64398174	0	0	0	0.806664643	0	0.743203367	0	0	0
3.035	-48.14390754	633.4064563	45.91641024	0.804529226	0	0.24132614	-92.74567398	-5.748695212	28.98111887	0	0	0	0.806664643	0	0.743203367	0	0	0
3.04	-45.77061742	631.2962126	44.76226364	0.804529226	0	0.24132614	-92.62136131	-5.329253958	26.15677933	0	0	0	0.806664643	0	0.743203367	0	0	0
3.045	-43.11566615	629.6106264	43.71697567	0.804529226	0	0.24132614	-92.56859826	-4.892312989	23.02825148	0	0	0	0.806664643	0	0.743203367	0	0	0
3.05	-40.19541432	628.2362482	42.90736194	0.804529226	0	0.24132614	-92.57539252	-4.449933303	19.69497101	0	0	0	0.806664643	0	0.743203367	0	0	0
3.055	-37.39604552	627.1874433	42.31020228	0.804529226	0	0.24132614	-92.6279158	-4.007231071	16.36821376	0	0	0	0.806664643	0	0.743203367	0	0	0
3.06	-34.88406052	626.5038293	41.77693539	0.804529226	0	0.24132614	-92.72655778	-3.563544979	13.10260138	0	0	0	0.806664643	0	0.743203367	0	0	0
3.065	-32.40292346	626.0415805	41.1571227	0.804529226	0	0.24132614	-92.87559	-3.115678654	9.779425364	0	0	0	0.806664643	0	0.743203367	0	0	0
3.07	-29.79736263	625.6264184	40.4365799	0.804529226	0	0.24132614	-93.07246441	-2.677885666	6.291345398	0	0	0	0.806664643	0	0.743203367	0	0	0
3.075	-27.27987187	625.3445459	39.73338014	0.804529226	0	0.24132614	-93.30754853	-2.262253871	2.72795752	0	0	0	0.806664643	0	0.743203367	0	0	0
3.08	-25.0303072	625.4209397	39.15309551	0.804529226	0	0.24132614	-93.57456136	-1.874801165	-0.71693064	0	0	0	0.806664643	0	0.743203367	0	0	0
3.085	-22.91702755	625.8775776	38.67101204	0.804529226	0	0.24132614	-93.88396813	-1.511726044	-4.029455899	0	0	0	0.806664643	0	0.743203367	0	0	0
3.09	-20.73132868	626.608752	38.13216153	0.804529226	0	0.24132614	-94.24365114	-1.141453109	-7.392538653	0	0	0	0.806664643	0	0.743203367	0	0	0
3.095	-18.46078007	627.6294641	37.47731595	0.804529226	0	0.24132614	-94.66008351	-0.75395609	-10.89471045	0	0	0	0.806664643	0	0.743203367	0	0	0
3.1	-16.19737108	629.0929913	36.80390362	0.804529226	0	0.24132614	-95.12222474	-0.36834898	-14.39217822	0	0	0	0.806664643	0	0.743203367	0	0	0
3.105	-13.96609188	631.0119263	36.25715145	0.804529226	0	0.24132614	-95.61376168	0.027043387	-17.78157192	0	0	0	0.806664643	0	0.743203367	0	0	0
